<mxfile host="app.diagrams.net" agent="Mozilla/5.0 (Macintosh; Intel Mac OS X 10_15_7) AppleWebKit/537.36 (KHTML, like Gecko) Chrome/128.0.0.0 Safari/537.36" version="24.7.14">
  <diagram name="Seite-1" id="uzfXJuAHYJdJpzZabL9u">
    <mxGraphModel dx="2206" dy="1171" grid="1" gridSize="10" guides="1" tooltips="1" connect="1" arrows="1" fold="1" page="1" pageScale="1" pageWidth="827" pageHeight="1169" math="0" shadow="0">
      <root>
        <mxCell id="0" />
        <mxCell id="1" parent="0" />
        <mxCell id="BHHHVFSAzoxlQthA0HxU-90" value="Domain Model" style="rounded=0;whiteSpace=wrap;html=1;verticalAlign=top;align=left;" vertex="1" parent="1">
          <mxGeometry x="520" y="470" width="434" height="110" as="geometry" />
        </mxCell>
        <mxCell id="BHHHVFSAzoxlQthA0HxU-12" style="edgeStyle=orthogonalEdgeStyle;rounded=0;orthogonalLoop=1;jettySize=auto;html=1;exitX=0.855;exitY=0;exitDx=0;exitDy=4.35;exitPerimeter=0;entryX=0.5;entryY=1;entryDx=0;entryDy=0;" edge="1" parent="1" source="BHHHVFSAzoxlQthA0HxU-6" target="BHHHVFSAzoxlQthA0HxU-2">
          <mxGeometry relative="1" as="geometry">
            <Array as="points">
              <mxPoint x="327" y="420" />
              <mxPoint x="390" y="420" />
            </Array>
          </mxGeometry>
        </mxCell>
        <mxCell id="BHHHVFSAzoxlQthA0HxU-16" style="edgeStyle=orthogonalEdgeStyle;rounded=0;orthogonalLoop=1;jettySize=auto;html=1;exitX=0.5;exitY=1;exitDx=0;exitDy=0;entryX=0.25;entryY=0;entryDx=0;entryDy=0;" edge="1" parent="1" source="BHHHVFSAzoxlQthA0HxU-1" target="BHHHVFSAzoxlQthA0HxU-3">
          <mxGeometry relative="1" as="geometry" />
        </mxCell>
        <mxCell id="BHHHVFSAzoxlQthA0HxU-1" value="HTTP Request" style="rounded=0;whiteSpace=wrap;html=1;" vertex="1" parent="1">
          <mxGeometry x="140" y="120" width="140" height="40" as="geometry" />
        </mxCell>
        <mxCell id="BHHHVFSAzoxlQthA0HxU-2" value="HTTP Response" style="rounded=0;whiteSpace=wrap;html=1;" vertex="1" parent="1">
          <mxGeometry x="320" y="120" width="140" height="40" as="geometry" />
        </mxCell>
        <mxCell id="BHHHVFSAzoxlQthA0HxU-9" style="edgeStyle=orthogonalEdgeStyle;rounded=0;orthogonalLoop=1;jettySize=auto;html=1;exitX=0.25;exitY=1;exitDx=0;exitDy=0;entryX=0.25;entryY=0;entryDx=0;entryDy=0;" edge="1" parent="1" source="BHHHVFSAzoxlQthA0HxU-3" target="BHHHVFSAzoxlQthA0HxU-4">
          <mxGeometry relative="1" as="geometry" />
        </mxCell>
        <mxCell id="BHHHVFSAzoxlQthA0HxU-3" value="API / Controller Layer" style="rounded=0;whiteSpace=wrap;html=1;" vertex="1" parent="1">
          <mxGeometry x="120" y="200" width="360" height="40" as="geometry" />
        </mxCell>
        <mxCell id="BHHHVFSAzoxlQthA0HxU-10" style="edgeStyle=orthogonalEdgeStyle;rounded=0;orthogonalLoop=1;jettySize=auto;html=1;exitX=0.25;exitY=1;exitDx=0;exitDy=0;entryX=0.25;entryY=0;entryDx=0;entryDy=0;" edge="1" parent="1" source="BHHHVFSAzoxlQthA0HxU-4" target="BHHHVFSAzoxlQthA0HxU-5">
          <mxGeometry relative="1" as="geometry" />
        </mxCell>
        <mxCell id="BHHHVFSAzoxlQthA0HxU-4" value="Service Layer" style="rounded=0;whiteSpace=wrap;html=1;" vertex="1" parent="1">
          <mxGeometry x="120" y="280" width="360" height="40" as="geometry" />
        </mxCell>
        <mxCell id="BHHHVFSAzoxlQthA0HxU-5" value="Data Access Layer" style="rounded=0;whiteSpace=wrap;html=1;" vertex="1" parent="1">
          <mxGeometry x="120" y="360" width="360" height="40" as="geometry" />
        </mxCell>
        <mxCell id="BHHHVFSAzoxlQthA0HxU-6" value="Database&lt;div&gt;PostgreSQL&lt;/div&gt;" style="shape=cylinder3;whiteSpace=wrap;html=1;boundedLbl=1;backgroundOutline=1;size=15;" vertex="1" parent="1">
          <mxGeometry x="259" y="440" width="80" height="90" as="geometry" />
        </mxCell>
        <mxCell id="BHHHVFSAzoxlQthA0HxU-11" style="edgeStyle=orthogonalEdgeStyle;rounded=0;orthogonalLoop=1;jettySize=auto;html=1;exitX=0.25;exitY=1;exitDx=0;exitDy=0;entryX=0.145;entryY=0;entryDx=0;entryDy=4.35;entryPerimeter=0;" edge="1" parent="1" source="BHHHVFSAzoxlQthA0HxU-5" target="BHHHVFSAzoxlQthA0HxU-6">
          <mxGeometry relative="1" as="geometry" />
        </mxCell>
        <mxCell id="BHHHVFSAzoxlQthA0HxU-37" style="edgeStyle=orthogonalEdgeStyle;rounded=0;orthogonalLoop=1;jettySize=auto;html=1;exitX=0;exitY=0;exitDx=160;exitDy=32.5;exitPerimeter=0;entryX=0;entryY=0.5;entryDx=0;entryDy=0;dashed=1;endArrow=none;endFill=0;" edge="1" parent="1" source="BHHHVFSAzoxlQthA0HxU-26" target="BHHHVFSAzoxlQthA0HxU-27">
          <mxGeometry relative="1" as="geometry" />
        </mxCell>
        <mxCell id="BHHHVFSAzoxlQthA0HxU-26" value="com.sam.coin.api" style="shape=folder;fontStyle=0;tabWidth=50;tabHeight=10;tabPosition=left;html=1;boundedLbl=1;whiteSpace=wrap;" vertex="1" parent="1">
          <mxGeometry x="520" y="195" width="160" height="40" as="geometry" />
        </mxCell>
        <mxCell id="BHHHVFSAzoxlQthA0HxU-27" value="SamApiResponse.java" style="rounded=0;whiteSpace=wrap;html=1;" vertex="1" parent="1">
          <mxGeometry x="716" y="230" width="160" height="30" as="geometry" />
        </mxCell>
        <mxCell id="BHHHVFSAzoxlQthA0HxU-33" style="edgeStyle=orthogonalEdgeStyle;rounded=0;orthogonalLoop=1;jettySize=auto;html=1;exitX=0;exitY=0;exitDx=160;exitDy=25;exitPerimeter=0;entryX=0;entryY=0.5;entryDx=0;entryDy=0;dashed=1;endArrow=none;endFill=0;" edge="1" parent="1" source="BHHHVFSAzoxlQthA0HxU-28" target="BHHHVFSAzoxlQthA0HxU-29">
          <mxGeometry relative="1" as="geometry" />
        </mxCell>
        <mxCell id="BHHHVFSAzoxlQthA0HxU-28" value="com.sam.coin.api.controller" style="shape=folder;fontStyle=0;tabWidth=50;tabHeight=10;tabPosition=left;html=1;boundedLbl=1;whiteSpace=wrap;" vertex="1" parent="1">
          <mxGeometry x="716" y="174" width="160" height="40" as="geometry" />
        </mxCell>
        <mxCell id="BHHHVFSAzoxlQthA0HxU-29" value="CoinController.java" style="rounded=0;whiteSpace=wrap;html=1;" vertex="1" parent="1">
          <mxGeometry x="896" y="184" width="150" height="30" as="geometry" />
        </mxCell>
        <mxCell id="BHHHVFSAzoxlQthA0HxU-38" style="edgeStyle=orthogonalEdgeStyle;rounded=0;orthogonalLoop=1;jettySize=auto;html=1;entryX=0;entryY=0;entryDx=0;entryDy=25;entryPerimeter=0;dashed=1;endArrow=none;endFill=0;" edge="1" parent="1" source="BHHHVFSAzoxlQthA0HxU-26" target="BHHHVFSAzoxlQthA0HxU-28">
          <mxGeometry relative="1" as="geometry" />
        </mxCell>
        <mxCell id="BHHHVFSAzoxlQthA0HxU-39" style="edgeStyle=orthogonalEdgeStyle;rounded=0;orthogonalLoop=1;jettySize=auto;html=1;entryX=0;entryY=0;entryDx=0;entryDy=25;entryPerimeter=0;dashed=1;endArrow=none;endFill=0;" edge="1" parent="1" source="BHHHVFSAzoxlQthA0HxU-3" target="BHHHVFSAzoxlQthA0HxU-26">
          <mxGeometry relative="1" as="geometry" />
        </mxCell>
        <mxCell id="BHHHVFSAzoxlQthA0HxU-42" style="edgeStyle=orthogonalEdgeStyle;rounded=0;orthogonalLoop=1;jettySize=auto;html=1;exitX=0;exitY=0;exitDx=160;exitDy=25;exitPerimeter=0;entryX=0;entryY=0.5;entryDx=0;entryDy=0;dashed=1;endArrow=none;endFill=0;" edge="1" parent="1" source="BHHHVFSAzoxlQthA0HxU-40" target="BHHHVFSAzoxlQthA0HxU-41">
          <mxGeometry relative="1" as="geometry" />
        </mxCell>
        <mxCell id="BHHHVFSAzoxlQthA0HxU-40" value="com.sam.coin.service" style="shape=folder;fontStyle=0;tabWidth=50;tabHeight=10;tabPosition=left;html=1;boundedLbl=1;whiteSpace=wrap;" vertex="1" parent="1">
          <mxGeometry x="520" y="275" width="160" height="40" as="geometry" />
        </mxCell>
        <mxCell id="BHHHVFSAzoxlQthA0HxU-41" value="CoinService.java" style="rounded=0;whiteSpace=wrap;html=1;" vertex="1" parent="1">
          <mxGeometry x="716" y="285" width="160" height="30" as="geometry" />
        </mxCell>
        <mxCell id="BHHHVFSAzoxlQthA0HxU-43" style="edgeStyle=orthogonalEdgeStyle;rounded=0;orthogonalLoop=1;jettySize=auto;html=1;entryX=0;entryY=0;entryDx=0;entryDy=25;entryPerimeter=0;dashed=1;endArrow=none;endFill=0;" edge="1" parent="1" source="BHHHVFSAzoxlQthA0HxU-4" target="BHHHVFSAzoxlQthA0HxU-40">
          <mxGeometry relative="1" as="geometry" />
        </mxCell>
        <mxCell id="BHHHVFSAzoxlQthA0HxU-51" style="edgeStyle=orthogonalEdgeStyle;rounded=0;orthogonalLoop=1;jettySize=auto;html=1;exitX=0;exitY=0;exitDx=160;exitDy=25;exitPerimeter=0;entryX=0;entryY=0.5;entryDx=0;entryDy=0;dashed=1;endArrow=none;endFill=0;" edge="1" parent="1" source="BHHHVFSAzoxlQthA0HxU-46" target="BHHHVFSAzoxlQthA0HxU-49">
          <mxGeometry relative="1" as="geometry" />
        </mxCell>
        <mxCell id="BHHHVFSAzoxlQthA0HxU-52" style="edgeStyle=orthogonalEdgeStyle;rounded=0;orthogonalLoop=1;jettySize=auto;html=1;exitX=0;exitY=0;exitDx=160;exitDy=25;exitPerimeter=0;entryX=0;entryY=0.5;entryDx=0;entryDy=0;dashed=1;endArrow=none;endFill=0;" edge="1" parent="1" source="BHHHVFSAzoxlQthA0HxU-46" target="BHHHVFSAzoxlQthA0HxU-47">
          <mxGeometry relative="1" as="geometry">
            <Array as="points">
              <mxPoint x="700" y="380" />
              <mxPoint x="700" y="435" />
            </Array>
          </mxGeometry>
        </mxCell>
        <mxCell id="BHHHVFSAzoxlQthA0HxU-46" value="com.sam.coin.repository" style="shape=folder;fontStyle=0;tabWidth=50;tabHeight=10;tabPosition=left;html=1;boundedLbl=1;whiteSpace=wrap;" vertex="1" parent="1">
          <mxGeometry x="520" y="355" width="160" height="40" as="geometry" />
        </mxCell>
        <mxCell id="BHHHVFSAzoxlQthA0HxU-47" value="CoinRepository.java&lt;div&gt;&lt;font style=&quot;font-size: 10px;&quot;&gt;interface&lt;/font&gt;&lt;/div&gt;" style="rounded=0;whiteSpace=wrap;html=1;dashed=1;" vertex="1" parent="1">
          <mxGeometry x="716" y="420" width="160" height="30" as="geometry" />
        </mxCell>
        <mxCell id="BHHHVFSAzoxlQthA0HxU-48" style="edgeStyle=orthogonalEdgeStyle;rounded=0;orthogonalLoop=1;jettySize=auto;html=1;exitX=1;exitY=0.5;exitDx=0;exitDy=0;entryX=0;entryY=0;entryDx=0;entryDy=25;entryPerimeter=0;dashed=1;endArrow=none;endFill=0;" edge="1" parent="1" source="BHHHVFSAzoxlQthA0HxU-5" target="BHHHVFSAzoxlQthA0HxU-46">
          <mxGeometry relative="1" as="geometry" />
        </mxCell>
        <mxCell id="BHHHVFSAzoxlQthA0HxU-84" style="edgeStyle=orthogonalEdgeStyle;rounded=0;orthogonalLoop=1;jettySize=auto;html=1;endArrow=block;endFill=0;dashed=1;entryX=1;entryY=0.5;entryDx=0;entryDy=0;exitX=1;exitY=0.5;exitDx=0;exitDy=0;" edge="1" parent="1" source="BHHHVFSAzoxlQthA0HxU-49" target="BHHHVFSAzoxlQthA0HxU-47">
          <mxGeometry relative="1" as="geometry">
            <mxPoint x="920" y="400" as="targetPoint" />
          </mxGeometry>
        </mxCell>
        <mxCell id="BHHHVFSAzoxlQthA0HxU-49" value="JdbcCoinRepository.java" style="rounded=0;whiteSpace=wrap;html=1;" vertex="1" parent="1">
          <mxGeometry x="716" y="365" width="160" height="30" as="geometry" />
        </mxCell>
        <mxCell id="BHHHVFSAzoxlQthA0HxU-55" value="Cross-Cutting Concerns" style="rounded=0;whiteSpace=wrap;html=1;verticalAlign=top;align=left;" vertex="1" parent="1">
          <mxGeometry x="520" y="710" width="434" height="250" as="geometry" />
        </mxCell>
        <mxCell id="BHHHVFSAzoxlQthA0HxU-58" style="edgeStyle=orthogonalEdgeStyle;rounded=0;orthogonalLoop=1;jettySize=auto;html=1;dashed=1;endArrow=none;endFill=0;" edge="1" parent="1">
          <mxGeometry relative="1" as="geometry">
            <mxPoint x="704" y="535" as="sourcePoint" />
            <mxPoint x="740" y="540" as="targetPoint" />
          </mxGeometry>
        </mxCell>
        <mxCell id="BHHHVFSAzoxlQthA0HxU-56" value="com.sam.coin.domain.model" style="shape=folder;fontStyle=0;tabWidth=50;tabHeight=10;tabPosition=left;html=1;boundedLbl=1;whiteSpace=wrap;" vertex="1" parent="1">
          <mxGeometry x="544" y="510" width="160" height="40" as="geometry" />
        </mxCell>
        <mxCell id="BHHHVFSAzoxlQthA0HxU-57" value="Coin.java" style="rounded=0;whiteSpace=wrap;html=1;" vertex="1" parent="1">
          <mxGeometry x="740" y="520" width="160" height="30" as="geometry" />
        </mxCell>
        <mxCell id="BHHHVFSAzoxlQthA0HxU-65" style="edgeStyle=orthogonalEdgeStyle;rounded=0;orthogonalLoop=1;jettySize=auto;html=1;exitX=0;exitY=0;exitDx=160;exitDy=25;exitPerimeter=0;entryX=0;entryY=0.5;entryDx=0;entryDy=0;dashed=1;endArrow=none;endFill=0;" edge="1" parent="1" source="BHHHVFSAzoxlQthA0HxU-59" target="BHHHVFSAzoxlQthA0HxU-60">
          <mxGeometry relative="1" as="geometry" />
        </mxCell>
        <mxCell id="BHHHVFSAzoxlQthA0HxU-59" value="com.sam.coin.exception" style="shape=folder;fontStyle=0;tabWidth=50;tabHeight=10;tabPosition=left;html=1;boundedLbl=1;whiteSpace=wrap;" vertex="1" parent="1">
          <mxGeometry x="544" y="740" width="160" height="40" as="geometry" />
        </mxCell>
        <mxCell id="BHHHVFSAzoxlQthA0HxU-60" value="GlobalExceptionHandler.java" style="rounded=0;whiteSpace=wrap;html=1;" vertex="1" parent="1">
          <mxGeometry x="740" y="749" width="160" height="30" as="geometry" />
        </mxCell>
        <mxCell id="BHHHVFSAzoxlQthA0HxU-70" style="edgeStyle=orthogonalEdgeStyle;rounded=0;orthogonalLoop=1;jettySize=auto;html=1;dashed=1;endArrow=none;endFill=0;" edge="1" parent="1" source="BHHHVFSAzoxlQthA0HxU-61">
          <mxGeometry relative="1" as="geometry">
            <mxPoint x="704" y="770" as="targetPoint" />
            <Array as="points">
              <mxPoint x="724" y="799" />
              <mxPoint x="724" y="770" />
            </Array>
          </mxGeometry>
        </mxCell>
        <mxCell id="BHHHVFSAzoxlQthA0HxU-61" value="GlobalExceptionHandler.java" style="rounded=0;whiteSpace=wrap;html=1;" vertex="1" parent="1">
          <mxGeometry x="754" y="784" width="160" height="30" as="geometry" />
        </mxCell>
        <mxCell id="BHHHVFSAzoxlQthA0HxU-68" style="edgeStyle=orthogonalEdgeStyle;rounded=0;orthogonalLoop=1;jettySize=auto;html=1;entryX=0;entryY=0;entryDx=160;entryDy=32.5;entryPerimeter=0;endArrow=none;endFill=0;dashed=1;" edge="1" parent="1" source="BHHHVFSAzoxlQthA0HxU-62" target="BHHHVFSAzoxlQthA0HxU-59">
          <mxGeometry relative="1" as="geometry">
            <mxPoint x="704" y="770" as="targetPoint" />
            <Array as="points">
              <mxPoint x="724" y="834" />
              <mxPoint x="724" y="770" />
              <mxPoint x="704" y="770" />
            </Array>
          </mxGeometry>
        </mxCell>
        <mxCell id="BHHHVFSAzoxlQthA0HxU-62" value="CoinNotFoundException.java" style="rounded=0;whiteSpace=wrap;html=1;" vertex="1" parent="1">
          <mxGeometry x="754" y="819" width="160" height="30" as="geometry" />
        </mxCell>
        <mxCell id="BHHHVFSAzoxlQthA0HxU-69" style="edgeStyle=orthogonalEdgeStyle;rounded=0;orthogonalLoop=1;jettySize=auto;html=1;endArrow=none;endFill=0;dashed=1;" edge="1" parent="1" source="BHHHVFSAzoxlQthA0HxU-63">
          <mxGeometry relative="1" as="geometry">
            <mxPoint x="704" y="770" as="targetPoint" />
            <Array as="points">
              <mxPoint x="724" y="869" />
              <mxPoint x="724" y="770" />
            </Array>
          </mxGeometry>
        </mxCell>
        <mxCell id="BHHHVFSAzoxlQthA0HxU-63" value="..." style="rounded=0;whiteSpace=wrap;html=1;" vertex="1" parent="1">
          <mxGeometry x="754" y="854" width="160" height="30" as="geometry" />
        </mxCell>
        <mxCell id="BHHHVFSAzoxlQthA0HxU-71" value="OpenApiConfig.java" style="rounded=0;whiteSpace=wrap;html=1;" vertex="1" parent="1">
          <mxGeometry x="740" y="910" width="160" height="30" as="geometry" />
        </mxCell>
        <mxCell id="BHHHVFSAzoxlQthA0HxU-72" value="com.sam.coin.config" style="shape=folder;fontStyle=0;tabWidth=50;tabHeight=10;tabPosition=left;html=1;boundedLbl=1;whiteSpace=wrap;" vertex="1" parent="1">
          <mxGeometry x="544" y="900" width="160" height="40" as="geometry" />
        </mxCell>
        <mxCell id="BHHHVFSAzoxlQthA0HxU-73" style="edgeStyle=orthogonalEdgeStyle;rounded=0;orthogonalLoop=1;jettySize=auto;html=1;dashed=1;endArrow=none;endFill=0;" edge="1" parent="1">
          <mxGeometry relative="1" as="geometry">
            <mxPoint x="704" y="925" as="sourcePoint" />
            <mxPoint x="740" y="930" as="targetPoint" />
          </mxGeometry>
        </mxCell>
        <mxCell id="BHHHVFSAzoxlQthA0HxU-79" value="&lt;span style=&quot;font-size: 8px;&quot;&gt;BUSINESS LOGIC&lt;/span&gt;" style="rounded=0;whiteSpace=wrap;html=1;" vertex="1" parent="1">
          <mxGeometry x="50" y="265" width="140" height="20" as="geometry" />
        </mxCell>
        <mxCell id="BHHHVFSAzoxlQthA0HxU-80" value="&lt;font style=&quot;font-size: 8px;&quot;&gt;HTTP: GET, POST, PUT, DELETE&lt;/font&gt;" style="rounded=0;whiteSpace=wrap;html=1;" vertex="1" parent="1">
          <mxGeometry x="50" y="189" width="140" height="20" as="geometry" />
        </mxCell>
        <mxCell id="BHHHVFSAzoxlQthA0HxU-81" value="&lt;span style=&quot;font-size: 8px;&quot;&gt;DATABASE&lt;/span&gt;" style="rounded=0;whiteSpace=wrap;html=1;" vertex="1" parent="1">
          <mxGeometry x="50" y="345" width="140" height="20" as="geometry" />
        </mxCell>
        <mxCell id="BHHHVFSAzoxlQthA0HxU-89" style="edgeStyle=orthogonalEdgeStyle;rounded=0;orthogonalLoop=1;jettySize=auto;html=1;exitX=0.5;exitY=1;exitDx=0;exitDy=0;" edge="1" parent="1" source="BHHHVFSAzoxlQthA0HxU-55" target="BHHHVFSAzoxlQthA0HxU-55">
          <mxGeometry relative="1" as="geometry" />
        </mxCell>
        <mxCell id="BHHHVFSAzoxlQthA0HxU-91" value="Configuration" style="rounded=0;whiteSpace=wrap;html=1;verticalAlign=top;align=left;" vertex="1" parent="1">
          <mxGeometry x="520" y="590" width="434" height="110" as="geometry" />
        </mxCell>
        <mxCell id="BHHHVFSAzoxlQthA0HxU-92" style="edgeStyle=orthogonalEdgeStyle;rounded=0;orthogonalLoop=1;jettySize=auto;html=1;dashed=1;endArrow=none;endFill=0;" edge="1" parent="1">
          <mxGeometry relative="1" as="geometry">
            <mxPoint x="704" y="645" as="sourcePoint" />
            <mxPoint x="740" y="650" as="targetPoint" />
          </mxGeometry>
        </mxCell>
        <mxCell id="BHHHVFSAzoxlQthA0HxU-93" value="com.sam.coin.datasource" style="shape=folder;fontStyle=0;tabWidth=50;tabHeight=10;tabPosition=left;html=1;boundedLbl=1;whiteSpace=wrap;" vertex="1" parent="1">
          <mxGeometry x="544" y="620" width="160" height="40" as="geometry" />
        </mxCell>
        <mxCell id="BHHHVFSAzoxlQthA0HxU-94" value="PostgresDatasource.java" style="rounded=0;whiteSpace=wrap;html=1;" vertex="1" parent="1">
          <mxGeometry x="740" y="630" width="160" height="30" as="geometry" />
        </mxCell>
        <mxCell id="BHHHVFSAzoxlQthA0HxU-109" value="- application.yml&lt;div&gt;- logback-spring.xml&lt;/div&gt;" style="rounded=0;whiteSpace=wrap;html=1;strokeColor=none;align=left;" vertex="1" parent="1">
          <mxGeometry x="544" y="665" width="160" height="30" as="geometry" />
        </mxCell>
      </root>
    </mxGraphModel>
  </diagram>
</mxfile>
